<svg width="40" height="40" viewBox="0 0 40 40" fill="none" xmlns="http://www.w3.org/2000/svg">
<path d="M20.5219 37.3423C20.0473 37.8528 19.4039 38.1395 18.7331 38.1395C18.0624 38.1395 17.419 37.8528 16.9444 37.3423L2.60063 21.8943C2.12661 21.3832 1.86035 20.6903 1.86035 19.9679C1.86035 19.2454 2.12661 18.5526 2.60063 18.0414L16.9444 2.59345C17.4241 2.11132 18.059 1.84867 18.7151 1.86087C19.3711 1.87308 19.9972 2.15919 20.4612 2.65887C20.9251 3.15859 21.1908 3.83281 21.2021 4.53939C21.2135 5.24597 20.9696 5.92967 20.5219 6.44635L10.4981 17.2417L35.6082 17.2417C36.2795 17.2417 36.9233 17.529 37.398 18.0402C37.8727 18.5515 38.1394 19.2449 38.1394 19.9679C38.1394 20.6909 37.8727 21.3843 37.398 21.8955C36.9233 22.4068 36.2795 22.694 35.6082 22.694L10.4981 22.694L20.5219 33.4894C20.9959 34.0005 21.2622 34.6934 21.2622 35.4158C21.2622 36.1382 20.9959 36.8311 20.5219 37.3423Z" fill="#172443"/>
</svg>
