<svg width="40" height="40" viewBox="0 0 40 40" fill="none" xmlns="http://www.w3.org/2000/svg">
<path d="M2.65761 20.522C2.1471 20.0474 1.86035 19.404 1.86035 18.7333C1.86035 18.0625 2.1471 17.4191 2.65761 16.9445L18.1056 2.60073C18.6167 2.12671 19.3096 1.86046 20.032 1.86046C20.7544 1.86046 21.4473 2.12671 21.9585 2.60073L37.4064 16.9445C37.8886 17.4242 38.1512 18.0591 38.139 18.7152C38.1268 19.3712 37.8407 19.9973 37.341 20.4613C36.8413 20.9252 36.1671 21.1909 35.4605 21.2022C34.7539 21.2136 34.0702 20.9697 33.5535 20.522L22.7581 10.4982L22.7581 35.6083C22.7581 36.2796 22.4709 36.9234 21.9597 37.3981C21.4484 37.8728 20.755 38.1395 20.032 38.1395C19.309 38.1395 18.6156 37.8728 18.1044 37.3981C17.5931 36.9234 17.3059 36.2796 17.3059 35.6083L17.3059 10.4982L6.51052 20.522C5.99937 20.996 5.30648 21.2623 4.58406 21.2623C3.86164 21.2623 3.16876 20.996 2.65761 20.522Z" fill="#172443"/>
</svg>
