<svg width="40" height="40" viewBox="0 0 40 40" fill="none" xmlns="http://www.w3.org/2000/svg">
<path d="M19.4781 2.65773C19.9527 2.14721 20.5961 1.86047 21.2669 1.86047C21.9376 1.86047 22.581 2.14721 23.0556 2.65773L37.3994 18.1057C37.8734 18.6168 38.1396 19.3097 38.1396 20.0321C38.1396 20.7546 37.8734 21.4474 37.3994 21.9586L23.0556 37.4066C22.5759 37.8887 21.941 38.1513 21.285 38.1391C20.6289 38.1269 20.0028 37.8408 19.5389 37.3411C19.0749 36.8414 18.8092 36.1672 18.7979 35.4606C18.7866 34.754 19.0304 34.0703 19.4781 33.5536L29.5019 22.7583L4.39183 22.7582C3.7205 22.7582 3.07667 22.471 2.60197 21.9598C2.12727 21.4485 1.86058 20.7551 1.86058 20.0321C1.86058 19.3091 2.12727 18.6157 2.60197 18.1045C3.07667 17.5932 3.7205 17.306 4.39183 17.306L29.5019 17.306L19.4781 6.51063C19.0041 5.99948 18.7378 5.3066 18.7378 4.58418C18.7378 3.86176 19.0041 3.16887 19.4781 2.65773Z" fill="#172443"/>
</svg>
