<svg width="40" height="40" viewBox="0 0 40 40" fill="none" xmlns="http://www.w3.org/2000/svg">
<path d="M37.3424 19.478C37.8529 19.9526 38.1396 20.5959 38.1396 21.2667C38.1396 21.9375 37.8529 22.5809 37.3424 23.0555L21.8944 37.3993C21.3833 37.8733 20.6904 38.1395 19.968 38.1395C19.2456 38.1395 18.5527 37.8733 18.0415 37.3993L2.59356 23.0555C2.11144 22.5757 1.84878 21.9409 1.86099 21.2848C1.87319 20.6288 2.1593 20.0027 2.65899 19.5387C3.1587 19.0748 3.83293 18.8091 4.53951 18.7978C5.24608 18.7864 5.92979 19.0303 6.44647 19.478L17.2419 29.5017L17.2419 4.39171C17.2419 3.72038 17.5291 3.07654 18.0403 2.60184C18.5516 2.12714 19.245 1.86046 19.968 1.86046C20.691 1.86046 21.3844 2.12714 21.8956 2.60184C22.4069 3.07655 22.6941 3.72038 22.6941 4.39171L22.6941 29.5017L33.4895 19.478C34.0006 19.004 34.6935 18.7377 35.4159 18.7377C36.1384 18.7377 36.8312 19.004 37.3424 19.478Z" fill="#172443"/>
</svg>
