<svg width="42" height="42" viewBox="0 0 42 42" fill="none" xmlns="http://www.w3.org/2000/svg">
<path d="M35.7331 20.9031C41.1001 13.367 43.8369 5.57827 40.0311 1.77211C36.2252 -2.03405 28.4371 0.70299 20.9015 6.07037C13.366 0.70299 5.57786 -2.03405 1.77198 1.77211C-2.0339 5.57827 0.702938 13.367 6.06992 20.9031C0.702938 28.4392 -2.0339 36.2279 1.77198 40.034C2.99779 41.2599 4.6351 41.8064 6.54239 41.8064C10.566 41.8064 15.7915 39.3743 20.9124 35.7358C26.0116 39.3743 31.2371 41.8064 35.2715 41.8064C37.1788 41.8064 38.8183 41.2577 40.042 40.034C43.837 36.2279 41.1001 28.4392 35.7331 20.9031ZM37.5686 4.23479C39.232 5.89835 38.1085 11.2897 33.5363 18.0136C32.0898 16.2228 30.5497 14.5097 28.9226 12.8814C27.2942 11.2564 25.5812 9.71841 23.7908 8.27393C30.5142 3.70132 35.9051 2.56905 37.5686 4.23479ZM31.4156 20.9031C29.8749 22.8522 28.2202 24.7085 26.4601 26.4621C24.7067 28.2222 22.8505 29.8771 20.9015 31.4179C18.9525 29.8771 17.0964 28.2222 15.3429 26.4621C13.5829 24.7085 11.9282 22.8522 10.3875 20.9031C13.4785 17.0076 17.0063 13.4795 20.9015 10.3882C22.8505 11.929 24.7067 13.5839 26.4601 15.3441C28.2202 17.0977 29.8749 18.9539 31.4156 20.9031ZM4.23448 4.23479C4.71348 3.75358 5.50383 3.50535 6.54675 3.50535C9.12029 3.50535 13.2288 5.00778 18.0101 8.27393C16.2213 9.71958 14.5091 11.2575 12.8804 12.8814C11.2555 14.5099 9.71769 16.223 8.27333 18.0136C3.70105 11.2897 2.57104 5.89835 4.23448 4.23479ZM4.23448 37.5713C2.57104 35.9078 3.70105 30.5164 8.27333 23.7925C9.71981 25.5833 11.2598 27.2964 12.887 28.9247C14.5143 30.5485 16.225 32.0864 18.0123 33.5322C11.2889 38.1048 5.89792 39.2371 4.23448 37.5713ZM37.5686 37.5713C35.9051 39.2371 30.5142 38.1113 23.7908 33.5387C25.5804 32.091 27.2933 30.5509 28.9226 28.9247C30.5475 27.2962 32.0854 25.5831 33.5297 23.7925C38.102 30.5164 39.232 35.9078 37.5686 37.5713ZM23.5143 20.9031C23.5143 21.4199 23.361 21.925 23.0739 22.3547C22.7868 22.7844 22.3788 23.1193 21.9014 23.3171C21.424 23.5149 20.8986 23.5666 20.3918 23.4658C19.885 23.365 19.4194 23.1161 19.054 22.7507C18.6886 22.3853 18.4398 21.9197 18.339 21.4128C18.2382 20.906 18.2899 20.3806 18.4877 19.9031C18.6854 19.4257 19.0203 19.0176 19.45 18.7305C19.8796 18.4434 20.3848 18.2901 20.9015 18.2901C21.5945 18.2901 22.259 18.5654 22.749 19.0554C23.239 19.5455 23.5143 20.2101 23.5143 20.9031Z" fill="#172443"/>
</svg>
