<svg width="48" height="48" viewBox="0 0 48 48" fill="none" xmlns="http://www.w3.org/2000/svg">
<path d="M44.475 28.4766C44.3498 28.1271 44.2026 27.7858 44.0344 27.4547L36.2363 9.71348C36.1625 9.54261 36.0569 9.38734 35.925 9.25598C35.3678 8.69868 34.7063 8.2566 33.9783 7.95499C33.2503 7.65338 32.4699 7.49814 31.6819 7.49814C30.8938 7.49814 30.1135 7.65338 29.3855 7.95499C28.6574 8.2566 27.9959 8.69868 27.4388 9.25598C27.1584 9.53661 27.0007 9.91683 27 10.3135V15.001H21V10.3135C21.0002 10.1164 20.9615 9.9213 20.8862 9.7392C20.8109 9.55711 20.7005 9.39164 20.5613 9.25223C20.0041 8.69493 19.3426 8.25285 18.6145 7.95124C17.8865 7.64963 17.1062 7.49439 16.3181 7.49439C15.5301 7.49439 14.7498 7.64963 14.0217 7.95124C13.2937 8.25285 12.6322 8.69493 12.075 9.25223C11.9432 9.38359 11.8375 9.53886 11.7638 9.70973L3.96563 27.451C3.79742 27.782 3.65025 28.1233 3.525 28.4729C3.08344 29.7084 2.91735 31.0255 3.03837 32.3319C3.15939 33.6384 3.56459 34.9025 4.22559 36.0359C4.88658 37.1693 5.78739 38.1444 6.86491 38.893C7.94242 39.6416 9.17058 40.1456 10.4634 40.3696C11.7561 40.5936 13.0823 40.5323 14.3488 40.1899C15.6154 39.8475 16.7918 39.2323 17.7956 38.3874C18.7994 37.5425 19.6063 36.4883 20.1598 35.2988C20.7134 34.1092 21.0001 32.813 21 31.501V18.001H27V31.501C26.9993 32.8132 27.2856 34.1096 27.8388 35.2995C28.392 36.4894 29.1986 37.544 30.2023 38.3893C31.2059 39.2346 32.3823 39.8502 33.6489 40.193C34.9156 40.5358 36.2418 40.5975 37.5348 40.3737C38.8278 40.1499 40.0562 39.6461 41.1339 38.8976C42.2117 38.1491 43.1128 37.1739 43.7739 36.0405C44.4351 34.907 44.8405 33.6427 44.9616 32.3361C45.0827 31.0295 44.9166 29.7123 44.475 28.4766ZM14.3831 11.2041C14.8832 10.783 15.5072 10.5368 16.1601 10.503C16.813 10.4691 17.459 10.6495 18 11.0166V24.7997C16.8289 23.7481 15.402 23.0228 13.8622 22.6963C12.3225 22.3699 10.724 22.4538 9.22688 22.9397L14.3831 11.2041ZM12 37.501C10.8133 37.501 9.65328 37.1491 8.66658 36.4898C7.67989 35.8305 6.91085 34.8934 6.45673 33.7971C6.0026 32.7007 5.88378 31.4943 6.11529 30.3304C6.3468 29.1666 6.91825 28.0975 7.75736 27.2583C8.59648 26.4192 9.66558 25.8478 10.8295 25.6163C11.9933 25.3848 13.1997 25.5036 14.2961 25.9577C15.3925 26.4118 16.3295 27.1809 16.9888 28.1676C17.6481 29.1543 18 30.3143 18 31.501C18 33.0923 17.3679 34.6184 16.2426 35.7436C15.1174 36.8688 13.5913 37.501 12 37.501ZM30 11.0147C30.541 10.6476 31.187 10.4673 31.8399 10.5011C32.4928 10.535 33.1168 10.7811 33.6169 11.2022L38.7731 22.936C37.2759 22.4503 35.6773 22.3667 34.1375 22.6935C32.5978 23.0202 31.1709 23.7459 30 24.7979V11.0147ZM36 37.501C34.8133 37.501 33.6533 37.1491 32.6666 36.4898C31.6799 35.8305 30.9109 34.8934 30.4567 33.7971C30.0026 32.7007 29.8838 31.4943 30.1153 30.3304C30.3468 29.1666 30.9182 28.0975 31.7574 27.2583C32.5965 26.4192 33.6656 25.8478 34.8295 25.6163C35.9933 25.3848 37.1997 25.5036 38.2961 25.9577C39.3925 26.4118 40.3295 27.1809 40.9888 28.1676C41.6481 29.1543 42 30.3143 42 31.501C42 33.0923 41.3679 34.6184 40.2426 35.7436C39.1174 36.8688 37.5913 37.501 36 37.501Z" fill="#172443"/>
</svg>
