<svg width="48" height="48" viewBox="0 0 48 48" fill="none" xmlns="http://www.w3.org/2000/svg">
<path d="M43.4102 39.6078H39.9929L28.7443 7.41685C28.5408 6.83359 28.1599 6.32788 27.6546 5.96994C27.1492 5.612 26.5445 5.41959 25.9242 5.41943H22.0758C21.4558 5.41946 20.8512 5.6116 20.3459 5.96918C19.8406 6.32677 19.4596 6.83208 19.2557 7.415L8.0072 39.6078H4.58989C4.1939 39.6078 3.81413 39.7644 3.53412 40.0432C3.25411 40.322 3.09681 40.7 3.09681 41.0943C3.09681 41.4885 3.25411 41.8666 3.53412 42.1454C3.81413 42.4241 4.1939 42.5807 4.58989 42.5807H43.4102C43.8062 42.5807 44.1859 42.4241 44.4659 42.1454C44.7459 41.8666 44.9033 41.4885 44.9033 41.0943C44.9033 40.7 44.7459 40.322 44.4659 40.0432C44.1859 39.7644 43.8062 39.6078 43.4102 39.6078ZM17.9213 20.2839H30.0788L33.1956 29.2027H14.8045L17.9213 20.2839ZM22.0758 8.39234H25.9242L29.0392 17.311H18.9609L22.0758 8.39234ZM13.7668 32.1756H34.2333L36.8313 39.6078H11.1688L13.7668 32.1756Z" fill="#172443"/>
</svg>
