<svg width="48" height="48" viewBox="0 0 48 48" fill="none" xmlns="http://www.w3.org/2000/svg">
<g clip-path="url(#clip0_27520_2550)">
<path d="M40.9922 22.0968C40.9336 21.8485 40.8146 21.6186 40.6459 21.4274C40.4771 21.2362 40.2637 21.0897 40.0247 21.0009L28.8772 16.8169L31.7139 2.61929C31.7781 2.28941 31.7334 1.94758 31.5864 1.64538C31.4395 1.34318 31.1983 1.097 30.8992 0.943996C30.6002 0.790993 30.2595 0.739466 29.9286 0.79719C29.5977 0.854915 29.2946 1.01876 29.0649 1.264L7.39288 24.4976C7.21686 24.6831 7.08952 24.9095 7.02225 25.1563C6.95498 25.4031 6.94986 25.6628 7.00736 25.9121C7.06485 26.1614 7.18317 26.3925 7.35174 26.5849C7.52031 26.7773 7.73388 26.9249 7.97338 27.0145L19.1248 31.1985L16.2958 45.3807C16.2316 45.7105 16.2763 46.0524 16.4233 46.3546C16.5702 46.6568 16.8114 46.903 17.1105 47.056C17.4096 47.209 17.7502 47.2605 18.0811 47.2028C18.412 47.145 18.7152 46.9812 18.9448 46.736L40.6169 23.5024C40.7897 23.3168 40.9143 23.0915 40.9798 22.8464C41.0452 22.6013 41.0495 22.3439 40.9922 22.0968ZM20.4 40.6507L22.4259 30.5092C22.4984 30.1496 22.441 29.7758 22.2638 29.4546C22.0866 29.1333 21.8012 28.8855 21.4584 28.7551L11.2339 24.9119L27.6078 7.35894L25.5838 17.5004C25.5113 17.8601 25.5688 18.2338 25.746 18.5551C25.9231 18.8763 26.2085 19.1242 26.5513 19.2545L36.7681 23.0881L20.4 40.6507Z" fill="#172443"/>
</g>
<defs>
<clipPath id="clip0_27520_2550">
<rect width="48" height="48" fill="white" transform="translate(48 48) rotate(-180)"/>
</clipPath>
</defs>
</svg>
