<svg width="42" height="45" viewBox="0 0 42 45" fill="none" xmlns="http://www.w3.org/2000/svg">
<path d="M40.1342 10.0501L22.4468 0.395437C21.9739 0.136021 21.4429 0 20.9032 0C20.3635 0 19.8325 0.136021 19.3596 0.395437L1.67226 10.0561C1.16714 10.3318 0.745488 10.7378 0.451332 11.2316C0.157177 11.7254 0.00130697 12.2889 0 12.8633V32.0402C0.00130697 32.6147 0.157177 33.1782 0.451332 33.672C0.745488 34.1658 1.16714 34.5717 1.67226 34.8474L19.3596 44.5061C19.8322 44.7666 20.3633 44.9032 20.9032 44.9032C21.4432 44.9032 21.9743 44.7666 22.4468 44.5061L40.1342 34.8474C40.6393 34.5717 41.061 34.1658 41.3551 33.672C41.6493 33.1782 41.8051 32.6147 41.8064 32.0402V12.8633C41.8062 12.2879 41.6509 11.7231 41.3567 11.2281C41.0624 10.7332 40.6402 10.3263 40.1342 10.0501ZM28.9429 27.2641V37.3077L22.5112 40.8207V23.4022L38.5906 14.6198V21.0361L29.7791 25.8484C29.5247 25.9873 29.3127 26.1921 29.1655 26.4413C29.0183 26.6905 28.9414 26.9748 28.9429 27.2641ZM12.0274 25.8605L3.21588 21.0482V14.6318L19.2953 23.4142V40.8327L12.8635 37.3077V27.2641C12.8629 26.9768 12.7849 26.6951 12.6379 26.4482C12.4908 26.2013 12.28 25.9983 12.0274 25.8605ZM11.8867 8.1332L20.1274 12.6347C20.364 12.7639 20.6295 12.8316 20.8992 12.8316C21.169 12.8316 21.4344 12.7639 21.671 12.6347L29.9117 8.1332L36.8419 11.9169L20.9032 20.6231L4.95648 11.9129L11.8867 8.1332ZM20.9032 3.20261L26.5712 6.29851L20.9032 9.39642L15.2352 6.30052L20.9032 3.20261ZM3.21588 24.7015L9.64764 28.2145V35.5512L3.21588 32.0402V24.7015ZM32.1588 35.5512V28.2145L38.5906 24.7015V32.0402L32.1588 35.5512Z" fill="#172443"/>
</svg>
