<svg width="16" height="16" viewBox="0 0 16 16" fill="none" xmlns="http://www.w3.org/2000/svg">
<path d="M14.3736 8.19185C14.5612 8.01742 14.6666 7.78097 14.6666 7.53444C14.6666 7.28791 14.5612 7.05147 14.3736 6.87704L8.69616 1.60539C8.5083 1.43118 8.25365 1.33333 7.98815 1.33333C7.72264 1.33333 7.46799 1.43118 7.28014 1.60539L1.60268 6.87704C1.42549 7.05335 1.32896 7.28667 1.33344 7.52779C1.33793 7.76891 1.44308 7.99899 1.62673 8.16952C1.81038 8.34004 2.05817 8.43767 2.31786 8.44184C2.57754 8.446 2.82882 8.35637 3.0187 8.19185L6.98624 4.5079L6.98624 13.7364C6.98624 13.9831 7.0918 14.2197 7.2797 14.3942C7.46759 14.5686 7.72243 14.6667 7.98815 14.6667C8.25387 14.6667 8.50871 14.5686 8.6966 14.3942C8.8845 14.2197 8.99005 13.9831 8.99005 13.7364L8.99005 4.5079L12.9576 8.19185C13.1454 8.36606 13.4001 8.46391 13.6656 8.46391C13.9311 8.46391 14.1858 8.36606 14.3736 8.19185Z" fill="#172443"/>
</svg>
