<svg width="24" height="24" viewBox="0 0 24 24" fill="none" xmlns="http://www.w3.org/2000/svg">
<path d="M2.43951 11.7122C2.15808 11.9739 2 12.3285 2 12.6983C2 13.0681 2.15808 13.4228 2.43952 13.6844L10.9557 21.5919C11.2375 21.8532 11.6195 22 12.0177 22C12.416 22 12.7979 21.8532 13.0797 21.5919L21.5959 13.6844C21.8617 13.42 22.0065 13.07 21.9998 12.7083C21.993 12.3466 21.8353 12.0015 21.5599 11.7457C21.2844 11.4899 20.9127 11.3435 20.5232 11.3372C20.1336 11.331 19.7567 11.4654 19.4719 11.7122L13.5206 17.2381L13.5206 3.39543C13.5206 3.02534 13.3622 2.67041 13.0804 2.40871C12.7986 2.14702 12.4163 2 12.0177 2C11.6191 2 11.2369 2.14702 10.955 2.40871C10.6732 2.67041 10.5149 3.02534 10.5149 3.39543L10.5149 17.2381L4.56355 11.7122C4.28177 11.4509 3.89979 11.3041 3.50153 11.3041C3.10327 11.3041 2.7213 11.4509 2.43951 11.7122Z" fill="#172443"/>
</svg>
