<svg width="32" height="32" viewBox="0 0 32 32" fill="none" xmlns="http://www.w3.org/2000/svg">
<path d="M29.5971 15.5907C29.9973 15.9628 30.2222 16.4673 30.2222 16.9932C30.2222 17.5191 29.9973 18.0235 29.5971 18.3957L17.4852 29.6418C17.0844 30.0135 16.5412 30.2222 15.9747 30.2222C15.4083 30.2222 14.8651 30.0135 14.4643 29.6418L2.35242 18.3957C1.97441 18.0195 1.76848 17.5218 1.77804 17.0074C1.78761 16.493 2.01194 16.0021 2.40372 15.6384C2.79551 15.2746 3.32414 15.0663 3.87812 15.0574C4.43211 15.0485 4.96817 15.2397 5.37327 15.5907L13.8374 23.4498L13.8374 3.7624C13.8374 3.23605 14.0625 2.73125 14.4634 2.35907C14.8642 1.98688 15.4079 1.77779 15.9747 1.77779C16.5416 1.77779 17.0853 1.98688 17.4861 2.35907C17.887 2.73125 18.1121 3.23605 18.1121 3.7624L18.1121 23.4498L26.5762 15.5907C26.977 15.2191 27.5202 15.0103 28.0867 15.0103C28.6531 15.0103 29.1963 15.2191 29.5971 15.5907Z" fill="#172443"/>
</svg>
