<svg width="33" height="33" viewBox="0 0 33 33" fill="none" xmlns="http://www.w3.org/2000/svg">
<path d="M23.1059 22.6989C23.1199 23.0829 22.9808 23.4455 22.7194 23.707C22.4579 23.9685 22.0953 24.1075 21.7113 24.0935L10.098 23.6631C9.71399 23.6486 9.3401 23.4823 9.05849 23.2007C8.77688 22.9191 8.61058 22.5452 8.5961 22.1611L8.16567 10.5479C8.16474 10.1729 8.30982 9.82307 8.57033 9.57208C8.83083 9.32109 9.1864 9.18858 9.56206 9.20249C9.93772 9.21643 10.3041 9.37569 10.584 9.64671C10.8638 9.91773 11.0353 10.2793 11.0622 10.6552L11.363 18.7709L21.1512 8.98258C21.4129 8.72089 21.7759 8.58187 22.1602 8.59612C22.5445 8.61036 22.9188 8.7767 23.2006 9.05854C23.4825 9.34038 23.6488 9.71463 23.6631 10.099C23.6773 10.4833 23.5383 10.8462 23.2766 11.1079L13.4883 20.8962L21.6039 21.197C21.988 21.2115 22.3619 21.3778 22.6435 21.6594C22.9251 21.941 23.0914 22.3149 23.1059 22.6989Z" fill="#172443"/>
</svg>
