<svg width="32" height="32" viewBox="0 0 32 32" fill="none" xmlns="http://www.w3.org/2000/svg">
<path d="M2.40292 16.4093C2.00266 16.0372 1.77783 15.5327 1.77783 15.0068C1.77783 14.4809 2.00266 13.9765 2.40292 13.6043L14.5148 2.35818C14.9156 1.98653 15.4588 1.77777 16.0253 1.77777C16.5917 1.77777 17.1349 1.98653 17.5357 2.35818L29.6476 13.6043C30.0256 13.9805 30.2315 14.4782 30.222 14.9926C30.2124 15.507 29.9881 15.9979 29.5963 16.3616C29.2045 16.7254 28.6759 16.9337 28.1219 16.9426C27.5679 16.9515 27.0318 16.7603 26.6267 16.4093L18.1626 8.55019L18.1626 28.2376C18.1626 28.764 17.9375 29.2687 17.5366 29.6409C17.1358 30.0131 16.5921 30.2222 16.0253 30.2222C15.4584 30.2222 14.9147 30.0131 14.5139 29.6409C14.113 29.2687 13.8879 28.764 13.8879 28.2376L13.8879 8.55019L5.42377 16.4093C5.02301 16.7809 4.47976 16.9897 3.91335 16.9897C3.34693 16.9897 2.80368 16.7809 2.40292 16.4093Z" fill="#172443"/>
</svg>
