<svg width="24" height="24" viewBox="0 0 24 24" fill="none" xmlns="http://www.w3.org/2000/svg">
<path d="M21.5605 12.2878C21.8419 12.0261 22 11.6715 22 11.3017C22 10.9319 21.8419 10.5772 21.5605 10.3156L13.0443 2.4081C12.7625 2.14678 12.3805 2 11.9823 2C11.584 2 11.2021 2.14678 10.9203 2.4081L2.40408 10.3156C2.13829 10.58 1.9935 10.93 2.00023 11.2917C2.00695 11.6534 2.16468 11.9985 2.44015 12.2543C2.71563 12.5101 3.08732 12.6565 3.47685 12.6628C3.86637 12.669 4.24328 12.5346 4.52812 12.2878L10.4794 6.76186L10.4794 20.6046C10.4794 20.9747 10.6378 21.3296 10.9196 21.5913C11.2014 21.853 11.5837 22 11.9823 22C12.3809 22 12.7631 21.853 13.045 21.5913C13.3268 21.3296 13.4851 20.9747 13.4851 20.6046L13.4851 6.76186L19.4364 12.2878C19.7182 12.5491 20.1002 12.6959 20.4985 12.6959C20.8967 12.6959 21.2787 12.5491 21.5605 12.2878Z" fill="#172443"/>
</svg>
