<svg width="33" height="33" viewBox="0 0 33 33" fill="none" xmlns="http://www.w3.org/2000/svg">
<path d="M9.17832 9.58534C9.16432 9.20132 9.30333 8.83875 9.56482 8.57727C9.8263 8.31579 10.1889 8.17678 10.5729 8.19077L22.1862 8.6212C22.5702 8.63568 22.9441 8.80198 23.2257 9.0836C23.5073 9.36521 23.6736 9.73909 23.6881 10.1231L24.1185 21.7364C24.1194 22.1113 23.9744 22.4612 23.7138 22.7122C23.4533 22.9632 23.0978 23.0957 22.7221 23.0818C22.3465 23.0678 21.9801 22.9086 21.7002 22.6376C21.4204 22.3665 21.2489 22.005 21.222 21.629L20.9212 13.5134L11.133 23.3017C10.8713 23.5634 10.5083 23.7024 10.124 23.6882C9.73964 23.6739 9.36539 23.5076 9.08355 23.2257C8.80171 22.9439 8.63537 22.5696 8.62113 22.1853C8.60688 21.801 8.7459 21.438 9.00759 21.1763L18.7959 11.3881L10.6802 11.0873C10.2962 11.0728 9.92232 10.9065 9.64071 10.6249C9.3591 10.3433 9.19279 9.96937 9.17832 9.58534Z" fill="#172443"/>
</svg>
