<svg width="16" height="16" viewBox="0 0 16 16" fill="none" xmlns="http://www.w3.org/2000/svg">
<path d="M8.19189 1.62634C8.01746 1.43871 7.78101 1.33333 7.53449 1.33333C7.28796 1.33333 7.05151 1.43871 6.87708 1.62634L1.60544 7.30379C1.43123 7.49165 1.33337 7.7463 1.33337 8.01181C1.33337 8.27731 1.43123 8.53196 1.60544 8.71982L6.87708 14.3973C7.0534 14.5745 7.28671 14.671 7.52783 14.6665C7.76896 14.662 7.99904 14.5569 8.16956 14.3732C8.34008 14.1896 8.43772 13.9418 8.44189 13.6821C8.44605 13.4224 8.35642 13.1711 8.19189 12.9813L4.50794 9.01371L13.7364 9.01371C13.9831 9.01371 14.2198 8.90815 14.3942 8.72026C14.5687 8.53236 14.6667 8.27753 14.6667 8.01181C14.6667 7.74608 14.5687 7.49125 14.3942 7.30335C14.2198 7.11546 13.9831 7.0099 13.7364 7.0099L4.50794 7.0099L8.19189 3.04236C8.3661 2.85451 8.46396 2.59986 8.46396 2.33435C8.46396 2.06884 8.3661 1.8142 8.19189 1.62634Z" fill="#172443"/>
</svg>
