<svg width="16" height="16" viewBox="0 0 16 16" fill="none" xmlns="http://www.w3.org/2000/svg">
<path d="M1.62638 7.80814C1.43876 7.98257 1.33337 8.21902 1.33337 8.46554C1.33337 8.71207 1.43876 8.94852 1.62638 9.12295L7.30384 14.3946C7.4917 14.5688 7.74635 14.6667 8.01185 14.6667C8.27736 14.6667 8.53201 14.5688 8.71986 14.3946L14.3973 9.12295C14.5745 8.94663 14.671 8.71332 14.6666 8.4722C14.6621 8.23108 14.5569 8.00099 14.3733 7.83047C14.1896 7.65995 13.9418 7.56231 13.6821 7.55815C13.4225 7.55398 13.1712 7.64361 12.9813 7.80814L9.01376 11.4921L9.01376 2.26361C9.01376 2.01688 8.9082 1.78026 8.7203 1.6058C8.53241 1.43134 8.27757 1.33332 8.01185 1.33332C7.74613 1.33332 7.49129 1.43134 7.3034 1.6058C7.1155 1.78026 7.00995 2.01688 7.00995 2.26361L7.00995 11.4921L3.04241 7.80814C2.85455 7.63393 2.5999 7.53607 2.3344 7.53607C2.06889 7.53607 1.81424 7.63393 1.62638 7.80814Z" fill="#172443"/>
</svg>
