<svg width="32" height="32" viewBox="0 0 32 32" fill="none" xmlns="http://www.w3.org/2000/svg">
<path d="M15.5907 2.40287C15.9628 2.0026 16.4672 1.77778 16.9931 1.77778C17.5191 1.77778 18.0235 2.0026 18.3956 2.40287L29.6418 14.5148C30.0134 14.9155 30.2222 15.4588 30.2222 16.0252C30.2222 16.5916 30.0134 17.1349 29.6418 17.5356L18.3956 29.6475C18.0195 30.0255 17.5217 30.2315 17.0073 30.2219C16.4929 30.2123 16.0021 29.988 15.6383 29.5962C15.2745 29.2044 15.0662 28.6758 15.0573 28.1218C15.0485 27.5678 15.2397 27.0318 15.5907 26.6267L23.4498 18.1626L3.76234 18.1626C3.23599 18.1626 2.73119 17.9374 2.359 17.5366C1.98682 17.1357 1.77772 16.5921 1.77772 16.0252C1.77772 15.4583 1.98682 14.9147 2.359 14.5138C2.73119 14.113 3.23599 13.8878 3.76234 13.8878L23.4498 13.8878L15.5907 5.42372C15.219 5.02296 15.0103 4.4797 15.0103 3.91329C15.0103 3.34688 15.219 2.80363 15.5907 2.40287Z" fill="#172443"/>
</svg>
