<svg width="16" height="16" viewBox="0 0 16 16" fill="none" xmlns="http://www.w3.org/2000/svg">
<path d="M7.80811 1.62635C7.98254 1.43872 8.21899 1.33334 8.46551 1.33334C8.71204 1.33334 8.94849 1.43872 9.12292 1.62635L14.3946 7.3038C14.5688 7.49166 14.6666 7.74631 14.6666 8.01181C14.6666 8.27732 14.5688 8.53197 14.3946 8.71983L9.12292 14.3973C8.9466 14.5745 8.71329 14.671 8.47217 14.6665C8.23104 14.662 8.00096 14.5569 7.83044 14.3732C7.65992 14.1896 7.56228 13.9418 7.55811 13.6821C7.55395 13.4224 7.64358 13.1711 7.80811 12.9813L11.4921 9.01372L2.26358 9.01372C2.01685 9.01372 1.78023 8.90816 1.60577 8.72027C1.43131 8.53237 1.33329 8.27753 1.33329 8.01181C1.33329 7.74609 1.43131 7.49125 1.60577 7.30336C1.78023 7.11547 2.01685 7.00991 2.26358 7.00991L11.4921 7.00991L7.80811 3.04237C7.6339 2.85451 7.53604 2.59986 7.53604 2.33436C7.53604 2.06885 7.6339 1.8142 7.80811 1.62635Z" fill="#172443"/>
</svg>
