<svg width="24" height="24" viewBox="0 0 24 24" fill="none" xmlns="http://www.w3.org/2000/svg">
<path d="M11.7122 2.43951C11.9739 2.15808 12.3285 2 12.6983 2C13.0681 2 13.4228 2.15808 13.6844 2.43952L21.5919 10.9557C21.8532 11.2375 22 11.6195 22 12.0177C22 12.416 21.8532 12.7979 21.5919 13.0797L13.6844 21.5959C13.42 21.8617 13.07 22.0065 12.7083 21.9998C12.3466 21.993 12.0015 21.8353 11.7457 21.5599C11.4899 21.2844 11.3435 20.9127 11.3372 20.5232C11.331 20.1336 11.4654 19.7567 11.7122 19.4719L17.2381 13.5206L3.39543 13.5206C3.02534 13.5206 2.67041 13.3622 2.40871 13.0804C2.14702 12.7986 2 12.4163 2 12.0177C2 11.6191 2.14702 11.2369 2.40871 10.955C2.67041 10.6732 3.02534 10.5149 3.39543 10.5149L17.2381 10.5149L11.7122 4.56355C11.4509 4.28177 11.3041 3.89979 11.3041 3.50153C11.3041 3.10327 11.4509 2.7213 11.7122 2.43951Z" fill="#172443"/>
</svg>
