<svg width="32" height="32" viewBox="0 0 32 32" fill="none" xmlns="http://www.w3.org/2000/svg">
<path d="M16.4093 29.5971C16.0372 29.9974 15.5328 30.2222 15.0069 30.2222C14.4809 30.2222 13.9765 29.9974 13.6044 29.5971L2.35824 17.4852C1.98659 17.0845 1.77783 16.5412 1.77783 15.9748C1.77783 15.4084 1.98659 14.8651 2.35824 14.4644L13.6044 2.35247C13.9806 1.97445 14.4783 1.76852 14.9927 1.77809C15.5071 1.78766 15.9979 2.01199 16.3617 2.40377C16.7255 2.79556 16.9338 3.32419 16.9427 3.87817C16.9515 4.43216 16.7603 4.96822 16.4093 5.37332L8.55025 13.8374L28.2377 13.8374C28.764 13.8374 29.2688 14.0626 29.641 14.4634C30.0132 14.8643 30.2223 15.4079 30.2223 15.9748C30.2223 16.5417 30.0132 17.0853 29.641 17.4862C29.2688 17.887 28.764 18.1122 28.2377 18.1122L8.55025 18.1122L16.4093 26.5763C16.781 26.977 16.9897 27.5203 16.9897 28.0867C16.9897 28.6531 16.781 29.1964 16.4093 29.5971Z" fill="#172443"/>
</svg>
