<svg width="24" height="24" viewBox="0 0 24 24" fill="none" xmlns="http://www.w3.org/2000/svg">
<path d="M12.2878 2.43951C12.0261 2.15808 11.6715 2 11.3017 2C10.9319 2 10.5772 2.15808 10.3156 2.43952L2.4081 10.9557C2.14678 11.2375 2 11.6195 2 12.0177C2 12.416 2.14678 12.7979 2.4081 13.0797L10.3156 21.5959C10.58 21.8617 10.93 22.0065 11.2917 21.9998C11.6534 21.993 11.9985 21.8353 12.2543 21.5599C12.5101 21.2844 12.6565 20.9127 12.6628 20.5232C12.669 20.1336 12.5346 19.7567 12.2878 19.4719L6.76186 13.5206L20.6046 13.5206C20.9747 13.5206 21.3296 13.3622 21.5913 13.0804C21.853 12.7986 22 12.4163 22 12.0177C22 11.6191 21.853 11.2369 21.5913 10.955C21.3296 10.6732 20.9747 10.5149 20.6046 10.5149L6.76186 10.5149L12.2878 4.56355C12.5491 4.28177 12.6959 3.89979 12.6959 3.50153C12.6959 3.10327 12.5491 2.7213 12.2878 2.43951Z" fill="#172443"/>
</svg>
