<svg width="48" height="48" viewBox="0 0 48 48" fill="none" xmlns="http://www.w3.org/2000/svg">
<path d="M43.853 23.1981C44.065 23.5657 44.1227 24.0022 44.0132 24.4121C43.9037 24.822 43.6361 25.1719 43.2689 25.3851L24.0001 36.611C23.7545 36.754 23.4754 36.8294 23.1912 36.8294C22.9069 36.8294 22.6278 36.754 22.3823 36.611L3.11346 25.3851C2.75156 25.1679 2.48987 24.8171 2.38506 24.4086C2.28025 24.0002 2.34075 23.5669 2.55346 23.2026C2.76617 22.8384 3.11398 22.5724 3.52157 22.4624C3.92917 22.3524 4.36376 22.4071 4.73124 22.6148L23.1972 33.3696L41.6631 22.6148C42.0312 22.4029 42.4683 22.3454 42.8787 22.4547C43.2891 22.5641 43.6394 22.8314 43.853 23.1981ZM2.32264 14.3778C2.32328 14.0969 2.39777 13.8211 2.53868 13.578C2.67958 13.3349 2.88194 13.133 3.1255 12.9926L22.3943 1.76668C22.6399 1.62369 22.919 1.54834 23.2032 1.54834C23.4874 1.54834 23.7666 1.62369 24.0121 1.76668L43.2809 12.9926C43.5233 13.1338 43.7244 13.336 43.8642 13.5791C44.0039 13.8221 44.0775 14.0975 44.0775 14.3778C44.0775 14.658 44.0039 14.9334 43.8642 15.1765C43.7244 15.4195 43.5233 15.6217 43.2809 15.763L24.0121 26.9888C23.7666 27.1318 23.4874 27.2072 23.2032 27.2072C22.919 27.2072 22.6399 27.1318 22.3943 26.9888L3.1255 15.763C2.88194 15.6225 2.67958 15.4206 2.53868 15.1775C2.39777 14.9344 2.32328 14.6587 2.32264 14.3778ZM7.11575 14.3778L23.1972 23.7474L39.2786 14.3778L23.1972 5.00816L7.11575 14.3778ZM44.0717 36.8295H40.8603V33.6221C40.8603 33.1968 40.6911 32.7889 40.39 32.4882C40.0888 32.1874 39.6804 32.0184 39.2545 32.0184C38.8287 32.0184 38.4202 32.1874 38.1191 32.4882C37.818 32.7889 37.6488 33.1968 37.6488 33.6221V36.8295H34.4373C34.0115 36.8295 33.603 36.9985 33.3019 37.2992C33.0008 37.6 32.8316 38.0079 32.8316 38.4332C32.8316 38.8586 33.0008 39.2665 33.3019 39.5672C33.603 39.868 34.0115 40.0369 34.4373 40.0369H37.6488V43.2443C37.6488 43.6697 37.818 44.0776 38.1191 44.3783C38.4202 44.6791 38.8287 44.848 39.2545 44.848C39.6804 44.848 40.0888 44.6791 40.39 44.3783C40.6911 44.0776 40.8603 43.6697 40.8603 43.2443V40.0369H44.0717C44.4976 40.0369 44.906 39.868 45.2072 39.5672C45.5083 39.2665 45.6775 38.8586 45.6775 38.4332C45.6775 38.0079 45.5083 37.6 45.2072 37.2992C44.906 36.9985 44.4976 36.8295 44.0717 36.8295ZM25.6058 41.5925L23.1972 42.9958L4.73124 32.2369C4.36562 32.0551 3.94438 32.0193 3.55324 32.1368C3.16211 32.2542 2.83048 32.5161 2.62586 32.8691C2.42125 33.2221 2.35902 33.6398 2.45184 34.037C2.54466 34.4343 2.78556 34.7812 3.1255 35.0073L22.3943 46.2332C22.6399 46.3762 22.919 46.4516 23.2032 46.4516C23.4874 46.4516 23.7666 46.3762 24.0121 46.2332L27.2236 44.3629C27.4086 44.2583 27.5711 44.1181 27.7014 43.9503C27.8318 43.7825 27.9275 43.5906 27.983 43.3855C28.0385 43.1805 28.0526 42.9666 28.0246 42.756C27.9966 42.5455 27.9271 42.3426 27.8199 42.1592C27.7128 41.9757 27.5703 41.8154 27.4006 41.6874C27.2309 41.5594 27.0375 41.4663 26.8315 41.4136C26.6255 41.3609 26.4111 41.3496 26.2007 41.3803C25.9903 41.411 25.7881 41.4831 25.6058 41.5925Z" fill="#172443"/>
</svg>
